<?xml version="1.0" encoding="UTF-8" standalone="no"?>
<!DOCTYPE svg PUBLIC "-//W3C//DTD SVG 1.1//EN" "http://www.w3.org/Graphics/SVG/1.1/DTD/svg11.dtd">
<svg width="100%" height="100%" viewBox="0 0 1000 1000" version="1.1" xmlns="http://www.w3.org/2000/svg" xmlns:xlink="http://www.w3.org/1999/xlink" xml:space="preserve" xmlns:serif="http://www.serif.com/" style="fill-rule:evenodd;clip-rule:evenodd;stroke-linejoin:round;stroke-miterlimit:2;">
    <rect id="Artboard1" x="0" y="0" width="1000" height="1000" style="fill:none;"/>
    <clipPath id="_clip1">
        <rect id="Artboard11" serif:id="Artboard1" x="0" y="0" width="1000" height="1000"/>
    </clipPath>
    <g clip-path="url(#_clip1)">
        <g transform="matrix(1.31741,0,0,1.31741,-2.7174e-13,55.8787)">
            <path d="M0,336C0,415.5 64.5,480 144,480L512,480C582.7,480 640,422.7 640,352C640,290.1 596,238.4 537.6,226.6C541.7,215.9 544,204.2 544,192C544,139 501,96 448,96C428.3,96 409.9,102 394.7,112.2C367,64.2 315.3,32 256,32C167.6,32 96,103.6 96,192C96,194.7 96.1,197.4 96.2,200.1C40.2,219.8 0,273.2 0,336Z" style="fill:white;fill-rule:nonzero;"/>
        </g>
        <g transform="matrix(0.826391,0,0,0.826391,113.934,106.096)">
            <path d="M909.598,240.011C999.406,240.011 1072.21,312.816 1072.21,402.624L1072.21,812.939C1072.21,902.748 999.406,975.552 909.598,975.552L414.837,975.552C325.029,975.552 252.225,902.748 252.225,812.939L252.225,402.624C252.225,312.816 325.029,240.011 414.837,240.011L909.598,240.011Z" style="fill:white;"/>
        </g>
        <g transform="matrix(1.09039,0,0,1.09039,382.045,329.221)">
            <path d="M0,96C0,60.7 28.7,32 64,32L448,32C483.3,32 512,60.7 512,96L512,416C512,451.3 483.3,480 448,480L64,480C28.7,480 0,451.3 0,416L0,96ZM323.8,202.5C319.3,195.9 311.9,192 304,192C296.1,192 288.6,195.9 284.2,202.5L197.2,330.1L170.7,297C166.1,291.3 159.2,288 152,288C144.8,288 137.8,291.3 133.3,297L69.3,377C63.5,384.2 62.4,394.1 66.4,402.4C70.4,410.7 78.8,416 88,416L424,416C432.9,416 441.1,411.1 445.2,403.2C449.3,395.3 448.8,385.8 443.8,378.5L323.8,202.5ZM112,192C138.332,192 160,170.332 160,144C160,117.668 138.332,96 112,96C85.668,96 64,117.668 64,144C64,170.332 85.668,192 112,192Z" style="fill:rgb(255,102,51);fill-rule:nonzero;"/>
        </g>
    </g>
</svg>
